<?xml version="1.0" encoding="UTF-8"?>
<svg width="169px" height="50px" viewBox="0 0 169 50" version="1.1" xmlns="http://www.w3.org/2000/svg" xmlns:xlink="http://www.w3.org/1999/xlink">
    <!-- Generator: Sketch 59.1 (86144) - https://sketch.com -->
    <title>LOGO Copy</title>
    <desc>Created with Sketch.</desc>
    <g id="Page-1" stroke="none" stroke-width="1" fill="none" fill-rule="evenodd">
        <g id="Privacy" transform="translate(-111.000000, -46.000000)" fill="#00D586">
            <g id="LOGO-Copy" transform="translate(111.000000, 46.000000)">
                <g id="Green-Logo-Copy-12">
                    <path d="M142.365497,0 C130.26463,0 120.420644,9.89247688 120.420644,22.0536104 C120.420644,34.2147438 130.26463,44.1069253 142.365497,44.1069253 C154.466364,44.1069253 164.31035,34.2144485 164.31035,22.053315 C164.31035,9.89218153 154.466658,0 142.365497,0 Z M142.517892,6.3441468 C151.16985,6.3441468 158.214557,13.3944657 158.214557,22.0533154 C158.214557,25.0029561 157.397105,27.7659727 155.977107,30.127228 L168.238999,41.9699082 L161.252085,49.2050692 L148.269968,36.6695889 C146.487796,37.374981 144.547061,37.7627786 142.517892,37.7627786 C133.865934,37.7627786 126.821226,30.7124596 126.821226,22.0536099 C126.821226,13.3947603 133.865934,6.3441468 142.517892,6.3441468 Z" id="Green-Q-Copy-2" fill-rule="nonzero"></path>
                    <path d="M6.92720764,43.1129032 L0.040274463,43.1129032 L0.040274463,3.17358871 L6.92720764,3.17358871 L6.92720764,43.1129032 Z M38.4621122,32.3945565 L18.7678998,32.3945565 C19.7344869,35.9274194 22.090543,37.8435484 25.4735979,37.8435484 C27.7088305,37.8435484 29.7628282,37.065121 31.1522971,35.6280242 C31.4543556,35.3885081 31.8772375,34.7298387 32.5417661,33.7717742 L38.3412888,36.1669355 C36.6497613,39.041129 36.1060561,39.6399194 34.4145286,41.0171371 C31.9376492,42.9332661 28.7962411,44.0110887 25.4735979,44.0110887 C17.6804893,44.0110887 11.6997315,37.8435484 11.6997315,29.8197581 C11.6997315,21.9157258 17.6804893,15.6883065 25.2319511,15.6883065 C31.0918854,15.6883065 36.0456444,19.4606855 37.7975835,25.2090726 C38.2808771,26.8856855 38.5225239,28.4425403 38.5225239,30.4784274 C38.5225239,30.8975806 38.5225239,31.3766129 38.4621122,32.3945565 Z M18.7678998,27.3048387 L31.6355907,27.3048387 C30.4273568,23.5324597 28.3733592,21.7360887 25.2319511,21.7360887 C21.9697196,21.7360887 19.6740752,23.7719758 18.7678998,27.3048387 Z M69.7553699,43.1129032 L62.8684368,43.1129032 L62.8684368,41.4362903 C60.3915573,43.2925403 58.4583831,44.0110887 55.6794451,44.0110887 C47.8259248,44.0110887 41.6035203,37.7237903 41.6035203,29.8197581 C41.6035203,21.9756048 47.8259248,15.6883065 55.6794451,15.6883065 C58.4583831,15.6883065 60.3915573,16.4068548 62.8684368,18.2631048 L62.8684368,16.5864919 L69.7553699,16.5864919 L69.7553699,43.1129032 Z M55.6794451,21.8558468 C51.5110382,21.8558468 48.5508652,25.1491935 48.5508652,29.8197581 C48.5508652,34.5502016 51.5110382,37.8435484 55.8002685,37.8435484 C60.0894988,37.8435484 62.9892601,34.5502016 62.9892601,29.8197581 C62.9892601,25.0294355 60.0894988,21.8558468 55.6794451,21.8558468 Z M88.7850537,21.8558468 C84.375,21.8558468 81.414827,25.0893145 81.414827,29.8197581 C81.414827,34.5502016 84.2541766,37.8435484 88.6642303,37.8435484 C93.2555191,37.8435484 95.6719869,34.3106855 95.6719869,29.5802419 C95.6719869,24.9096774 92.8930489,21.8558468 88.7850537,21.8558468 Z M102.619332,3.17358871 L102.619332,29.5203629 C102.619332,40.1189516 95.7928103,44.0110887 88.6038186,44.0110887 C79.5420644,44.0110887 74.4674821,37.4842742 74.4674821,29.5802419 C74.4674821,21.4965726 80.1461814,15.6883065 88.1809368,15.6883065 C93.074284,15.6883065 95.7323986,18.2631048 95.7323986,18.2631048 L95.7323986,3.17358871 L102.619332,3.17358871 Z M115.789081,16.5864919 L115.789081,43.1129032 L108.902148,43.1129032 L108.902148,16.5864919 L115.789081,16.5864919 Z M112.466438,3.35322581 C114.762082,3.35322581 116.695257,5.26935484 116.695257,7.54475806 C116.695257,9.88004032 114.762082,11.7362903 112.406026,11.7362903 C109.989558,11.7362903 108.056384,9.88004032 108.056384,7.48487903 C108.056384,5.20947581 109.989558,3.35322581 112.466438,3.35322581 Z" id="leadi"></path>
                </g>
            </g>
        </g>
    </g>
</svg>